<svg width="14" height="14" viewBox="0 0 20 20" fill="none" xmlns="http://www.w3.org/2000/svg" class="shrink-0" aria-label="Caesars"><title>Caesars</title><path d="M9.33267 13.7737C9.06573 13.6645 8.88373 13.4946 8.88373 13.2884C8.88373 13.0942 9.06573 12.9122 9.32053 12.803C9.39334 12.7788 9.46614 12.7545 9.55107 12.7302C9.57534 12.7302 9.58747 12.7181 9.61174 12.7181C9.7 12.7035 9.78922 12.6953 9.87867 12.6938C9.96813 12.6953 10.0574 12.7035 10.1456 12.7181C10.1699 12.7181 10.182 12.7302 10.2063 12.7302C10.5946 12.8152 10.8736 13.0336 10.8736 13.2762C10.8736 13.531 10.5824 13.7494 10.1941 13.8223C10.1699 13.8223 10.1577 13.8344 10.1335 13.8344C10.0492 13.8485 9.96407 13.8566 9.87867 13.8587C9.79327 13.8566 9.70812 13.8485 9.62387 13.8344C9.5996 13.8344 9.58747 13.8223 9.5632 13.8223C9.48419 13.819 9.40627 13.8026 9.33267 13.7737ZM8.93226 10.8859C9.12711 11.3668 9.24977 11.8738 9.29627 12.3905C9.48454 12.3309 9.68123 12.3022 9.87868 12.3056C10.0757 12.3082 10.2715 12.3368 10.4611 12.3905C10.5017 11.8728 10.6246 11.3649 10.8251 10.8859C10.5172 10.9735 10.1988 11.0185 9.87868 11.0194C9.55864 11.0176 9.24031 10.9727 8.93226 10.8859V10.8859ZM9.87867 10.619C11.4075 10.619 12.7907 9.44205 13.7371 7.57349H13.7614C13.7978 7.50069 13.8342 7.41575 13.8706 7.34295H5.88674C5.92314 7.41575 5.95955 7.50069 5.99594 7.57349H6.02021C6.96663 9.42992 8.34985 10.619 9.87867 10.619V10.619ZM14.999 2.80501C15.0233 2.4774 15.0354 2.1498 15.0476 1.81006H4.73406C4.73406 2.1498 4.75833 2.4774 4.78259 2.80501H14.999ZM12.1355 4.4673C11.965 4.4673 11.8014 4.53506 11.6808 4.65566C11.5602 4.77626 11.4924 4.93983 11.4924 5.11038C11.4924 5.28093 11.5602 5.4445 11.6808 5.5651C11.8014 5.6857 11.965 5.75346 12.1355 5.75346C12.3061 5.75346 12.4696 5.6857 12.5902 5.5651C12.7108 5.4445 12.7786 5.28093 12.7786 5.11038C12.7786 4.93983 12.7108 4.77626 12.5902 4.65566C12.4696 4.53506 12.3061 4.4673 12.1355 4.4673ZM6.00808 5.11038C6.00697 4.94017 5.93885 4.77725 5.81849 4.65689C5.69814 4.53653 5.53521 4.46842 5.365 4.4673C5.3242 4.46589 5.28339 4.46997 5.24367 4.47944C5.23708 4.47862 5.2304 4.47929 5.2241 4.48139C5.2178 4.48348 5.21205 4.48696 5.20727 4.49157C5.183 4.5037 5.15874 4.5037 5.13447 4.51584C5.12233 4.51584 5.1102 4.52797 5.09807 4.52797C5.07117 4.53981 5.04654 4.55623 5.02526 4.5765C5.01313 4.5765 5.01313 4.58864 5.001 4.58864C4.91518 4.64882 4.84504 4.72871 4.79648 4.82161C4.74792 4.9145 4.72236 5.01769 4.72193 5.12251C4.72149 5.27977 4.77968 5.43154 4.88513 5.5482C4.99057 5.66486 5.13571 5.73804 5.2922 5.75346C5.31647 5.75346 5.34074 5.76559 5.36501 5.76559C5.53645 5.76173 5.6996 5.69108 5.81972 5.56869C5.93984 5.44631 6.00742 5.28186 6.00808 5.11038ZM10.4368 14.1863C10.2555 14.24 10.0677 14.2685 9.87867 14.2712C9.68917 14.2745 9.50046 14.2458 9.32053 14.1863C9.21133 15.1691 8.41052 16.067 6.88169 16.9042H12.8757C11.3468 16.0791 10.546 15.1812 10.4368 14.1863ZM13.8099 17.3167H5.95955C5.88232 17.3167 5.80825 17.3474 5.75364 17.402C5.69903 17.4566 5.66835 17.5307 5.66835 17.6079C5.66835 17.6851 5.69903 17.7592 5.75364 17.8138C5.80825 17.8684 5.88232 17.8991 5.95955 17.8991H13.8099C13.8867 17.8968 13.96 17.8666 14.0162 17.8142C14.0706 17.7593 14.1012 17.6852 14.1011 17.6079C14.0988 17.5311 14.0686 17.4578 14.0162 17.4016C13.9893 17.3743 13.9572 17.3527 13.9218 17.3381C13.8863 17.3235 13.8483 17.3162 13.8099 17.3167ZM9.87867 4.4673C9.70812 4.4673 9.54455 4.53506 9.42395 4.65566C9.30335 4.77626 9.2356 4.93983 9.2356 5.11038C9.2356 5.28093 9.30335 5.4445 9.42395 5.5651C9.54455 5.6857 9.70812 5.75346 9.87867 5.75346C10.0492 5.75346 10.2128 5.6857 10.3334 5.5651C10.454 5.4445 10.5218 5.28093 10.5218 5.11038C10.5218 4.93983 10.454 4.77626 10.3334 4.65566C10.2128 4.53506 10.0492 4.4673 9.87867 4.4673ZM14.7321 4.5765L14.6593 4.5401C14.6471 4.5401 14.635 4.52797 14.6229 4.52797C14.5986 4.51584 14.5743 4.51584 14.5501 4.5037C14.5379 4.5037 14.5258 4.49157 14.5137 4.49157C14.4742 4.48092 14.4332 4.47682 14.3923 4.47944C14.2219 4.4796 14.0585 4.54742 13.938 4.668C13.8175 4.78858 13.7499 4.95206 13.7499 5.12251C13.7499 5.29297 13.8175 5.45644 13.938 5.57703C14.0585 5.69761 14.2219 5.76543 14.3923 5.76559C14.5626 5.76448 14.7255 5.69636 14.8458 5.57601C14.9662 5.45565 15.0343 5.29272 15.0354 5.12251C15.0375 5.01284 15.0105 4.90457 14.9572 4.80869C14.904 4.7128 14.8263 4.6327 14.7321 4.5765ZM14.3438 6.15386C14.2615 6.41799 14.1642 6.67725 14.0526 6.93041H5.70474C5.59554 6.6756 5.49847 6.4208 5.41354 6.15386C5.56768 6.1471 5.7184 6.10627 5.85487 6.03429C5.99133 5.96231 6.11015 5.86098 6.20277 5.73758C6.29538 5.61419 6.3595 5.4718 6.3905 5.32066C6.42151 5.16952 6.41862 5.01339 6.38207 4.8635C6.34551 4.71361 6.27618 4.57368 6.17907 4.45379C6.08196 4.3339 5.95949 4.23702 5.82046 4.17012C5.68143 4.10323 5.5293 4.06798 5.37502 4.06692C5.22074 4.06585 5.06814 4.099 4.9282 4.16396C4.87966 3.84849 4.83113 3.53302 4.79473 3.20542H14.9505C14.9141 3.53302 14.8777 3.84849 14.817 4.16396C14.6582 4.09011 14.4833 4.05752 14.3085 4.06922C14.1337 4.08091 13.9647 4.13651 13.8171 4.23087C13.6695 4.32523 13.5481 4.4553 13.4642 4.60903C13.3802 4.76277 13.3364 4.93521 13.3367 5.11038C13.3409 5.37962 13.4472 5.63722 13.6342 5.83098C13.8212 6.02474 14.0749 6.14016 14.3438 6.15386ZM8.66532 5.11038C8.66532 4.904 8.60412 4.70225 8.48946 4.53065C8.3748 4.35905 8.21183 4.22531 8.02116 4.14633C7.83049 4.06735 7.62068 4.04668 7.41826 4.08695C7.21585 4.12721 7.02992 4.22659 6.88398 4.37253C6.73805 4.51846 6.63867 4.70439 6.5984 4.90681C6.55814 5.10922 6.57881 5.31903 6.65778 5.5097C6.73676 5.70038 6.87051 5.86335 7.04211 5.97801C7.21371 6.09267 7.41546 6.15386 7.62184 6.15386C7.75944 6.15592 7.89605 6.13033 8.02358 6.07861C8.1511 6.0269 8.26695 5.95011 8.36426 5.8528C8.46157 5.7555 8.53836 5.63965 8.59007 5.51212C8.64178 5.38459 8.66737 5.24798 8.66532 5.11038ZM10.9222 5.11038C10.9222 4.904 10.861 4.70225 10.7463 4.53065C10.6316 4.35905 10.4687 4.2253 10.278 4.14633C10.0873 4.06735 9.87752 4.04668 9.6751 4.08695C9.47268 4.12721 9.28675 4.22659 9.14082 4.37253C8.99489 4.51846 8.8955 4.70439 8.85524 4.90681C8.81498 5.10922 8.83564 5.31903 8.91462 5.5097C8.9936 5.70038 9.12735 5.86335 9.29895 5.97801C9.47055 6.09267 9.67229 6.15386 9.87867 6.15386C10.0157 6.15387 10.1514 6.12689 10.278 6.07445C10.4046 6.02201 10.5197 5.94515 10.6165 5.84825C10.7134 5.75136 10.7903 5.63632 10.8427 5.50971C10.8952 5.38311 10.9222 5.24741 10.9222 5.11038ZM13.179 5.11038C13.179 4.904 13.1178 4.70225 13.0031 4.53065C12.8885 4.35905 12.7255 4.22531 12.5348 4.14633C12.3442 4.06735 12.1344 4.04668 11.9319 4.08695C11.7295 4.12721 11.5436 4.22659 11.3977 4.37253C11.2517 4.51846 11.1523 4.70439 11.1121 4.90681C11.0718 5.10922 11.0925 5.31903 11.1715 5.5097C11.2504 5.70038 11.3842 5.86335 11.5558 5.97801C11.7274 6.09267 11.9291 6.15386 12.1355 6.15386C12.2725 6.15387 12.4082 6.12689 12.5348 6.07445C12.6615 6.02201 12.7765 5.94515 12.8734 5.84825C12.9703 5.75136 13.0471 5.63632 13.0996 5.50971C13.152 5.38311 13.179 5.24741 13.179 5.11038ZM7.62184 4.4673C7.45128 4.4673 7.28772 4.53506 7.16712 4.65566C7.04652 4.77626 6.97876 4.93983 6.97876 5.11038C6.97876 5.28093 7.04652 5.4445 7.16712 5.5651C7.28772 5.6857 7.45128 5.75346 7.62184 5.75346C7.79239 5.75346 7.95596 5.6857 8.07656 5.5651C8.19716 5.4445 8.26492 5.28093 8.26492 5.11038C8.26492 4.93983 8.19716 4.77626 8.07656 4.65566C7.95596 4.53506 7.79239 4.4673 7.62184 4.4673Z" fill="currentColor"></path></svg>